<?xml version="1.0" standalone="no"?>
<!DOCTYPE svg PUBLIC "-//W3C//DTD SVG 20010904//EN"
 "http://www.w3.org/TR/2001/REC-SVG-20010904/DTD/svg10.dtd">
<svg version="1.0" xmlns="http://www.w3.org/2000/svg"
 width="700.000000pt" height="700.000000pt" viewBox="0 0 700.000000 700.000000"
 preserveAspectRatio="xMidYMid meet">
<metadata>
Created by potrace 1.11, written by Peter Selinger 2001-2013
</metadata>
<g transform="translate(0.000000,700.000000) scale(0.100000,-0.100000)"
fill="#000000" stroke="none">
<path d="M3240 6029 c-263 -31 -536 -114 -800 -245 -786 -391 -1358 -1171
-1465 -1997 -19 -151 -19 -422 0 -574 145 -1130 1136 -2109 2270 -2243 128
-15 381 -15 510 0 1034 121 1965 952 2219 1980 20 80 43 198 51 263 19 152 19
423 0 574 -147 1132 -1147 2116 -2280 2243 -106 12 -398 11 -505 -1z m1609
-1544 c52 -28 99 -80 124 -135 9 -18 13 -260 17 -855 l5 -830 88 -3 87 -3 0
-69 c0 -97 -28 -166 -89 -223 -88 -83 28 -77 -1581 -77 -1609 0 -1493 -6
-1581 77 -62 58 -89 126 -89 223 l0 70 90 0 89 0 3 828 c3 814 3 828 24 872
33 71 97 127 174 151 14 4 601 7 1305 6 l1280 -2 54 -30z"/>
<path d="M2221 4304 c-21 -27 -21 -32 -21 -835 l0 -809 1305 0 1305 0 0 804 0
804 -26 31 -26 31 -1258 0 -1259 0 -20 -26z"/>
</g>
</svg>
